<svg width="17" height="12" viewBox="0 0 17 12" fill="none" xmlns="http://www.w3.org/2000/svg">
<path d="M4.15978 3.77972C2.80421 2.57079 1.46945 1.34189 0.0974421 0.147297C3.30669 0.158587 6.51545 0.149033 9.72469 0.152507C10.2634 0.159021 10.8075 0.125151 11.34 0.215907C12.7047 0.384827 13.9974 0.984513 14.9419 1.88426C15.9918 2.86174 16.606 4.19833 16.6539 5.55403C16.6897 6.67133 16.3376 7.79732 15.6639 8.73701C14.8713 9.83 13.6463 10.6941 12.237 11.0398C11.1847 10.0797 10.1159 9.13304 9.05682 8.17815C8.84355 8.00054 8.66461 7.78776 8.41991 7.64099C8.4615 7.61016 8.50647 7.58411 8.5558 7.56326C9.2285 7.57585 9.90266 7.57412 10.5758 7.5663C11.6204 7.54025 12.5374 6.68306 12.5166 5.74379C12.547 4.98083 11.972 4.24783 11.1794 3.98599C10.8771 3.86874 10.5434 3.867 10.2199 3.86961C8.26709 3.87135 6.31475 3.86918 4.36241 3.87091C4.28068 3.87135 4.21297 3.84095 4.15978 3.77972Z" fill="#7C4EE4"/>
</svg>
